<svg width="48" height="48" viewBox="0 0 48 48" fill="none" xmlns="http://www.w3.org/2000/svg">
<path d="M41.242 16.9C39.142 7.66 31.082 3.5 24.002 3.5H23.982C16.922 3.5 8.84202 7.64 6.74202 16.88C4.40202 27.2 10.722 35.94 16.442 41.44C18.4695 43.4024 21.1804 44.4997 24.002 44.5C26.722 44.5 29.442 43.48 31.542 41.44C37.262 35.94 43.582 27.22 41.242 16.9ZM24.002 26.92C23.1747 26.92 22.3555 26.757 21.5911 26.4404C20.8268 26.1238 20.1323 25.6598 19.5472 25.0748C18.9622 24.4898 18.4982 23.7953 18.1816 23.0309C17.865 22.2666 17.702 21.4473 17.702 20.62C17.702 19.7927 17.865 18.9734 18.1816 18.2091C18.4982 17.4447 18.9622 16.7502 19.5472 16.1652C20.1323 15.5802 20.8268 15.1162 21.5911 14.7996C22.3555 14.483 23.1747 14.32 24.002 14.32C25.6729 14.32 27.2753 14.9837 28.4568 16.1652C29.6383 17.3467 30.302 18.9491 30.302 20.62C30.302 22.2909 29.6383 23.8933 28.4568 25.0748C27.2753 26.2563 25.6729 26.92 24.002 26.92V26.92Z" fill="white"/>
</svg>
